<?xml version="1.0"?>
<!-- Generated by SVGo -->
<svg width="3840" height="2160"
     xmlns="http://www.w3.org/2000/svg"
     xmlns:xlink="http://www.w3.org/1999/xlink">
    <g style="fill:none;stroke:white;stroke-width:4px">
        <!--rect x="0" y="0" width="3840" height="2160" style="fill:black;stroke:white"/-->
        <path d="M1680,1080 A720,720 0 1 1 960,360" style="stroke-width:5px"/>
        <path d="M1690,1080 A730,730 0 1 1 960,350" style="stroke:none" id="clockEdge"/>
        <g style="stroke-width:10;stroke:white;fill:white">
            <line x1="960" y1="350" x2="960" y2="370" transform="rotate(-270.00 960 1080)"/>
            <line x1="960" y1="350" x2="960" y2="370" transform="rotate(-240.00 960 1080)"/>
            <line x1="960" y1="350" x2="960" y2="370" transform="rotate(-210.00 960 1080)"/>
            <line x1="960" y1="350" x2="960" y2="370" transform="rotate(-180.00 960 1080)"/>
            <line x1="960" y1="350" x2="960" y2="370" transform="rotate(-150.00 960 1080)"/>
            <line x1="960" y1="350" x2="960" y2="370" transform="rotate(-120.00 960 1080)"/>
            <line x1="960" y1="350" x2="960" y2="370" transform="rotate(-90.00 960 1080)"/>
            <line x1="960" y1="350" x2="960" y2="370" transform="rotate(-60.00 960 1080)"/>
            <line x1="960" y1="350" x2="960" y2="370" transform="rotate(-30.00 960 1080)"/>
            <line x1="960" y1="350" x2="960" y2="370" transform="rotate(-0.00 960 1080)"/>
            <line x1="960" y1="350" x2="960" y2="370" transform="rotate(-18.00 960 1080)"/>
        </g>
        <g style="stroke-width:1;fill:white;font-family:Verdana;font-size: 40px;font-style:normal;text-anchor:middle">
            <text x="1720" y="1080" style="alignment-baseline:middle">45</text>
            <text x="1619" y="1455" style="alignment-baseline:middle">40</text>
            <text x="1345" y="1739" style="alignment-baseline:middle">35</text>
            <text x="960" y="1840" style="alignment-baseline:middle">30</text>
            <text x="586" y="1739" style="alignment-baseline:middle">25</text>
            <text x="301" y="1454" style="alignment-baseline:middle">20</text>
            <text x="200" y="1083" style="alignment-baseline:middle">15</text>
            <text x="301" y="705" style="alignment-baseline:middle">10</text>
            <text x="586" y="431" style="alignment-baseline:middle">5</text>
            <text x="960" y="330" style="alignment-baseline:middle">0</text>
            <text x="729" y="367" style="alignment-baseline:middle">3</text>
        </g>
        <g style="stroke-width:5;stroke:white;fill:white">
            <line x1="960" y1="360" x2="960" y2="367" transform="rotate(-114.00 960 1080)"/>
            <line x1="960" y1="360" x2="960" y2="367" transform="rotate(-108.00 960 1080)"/>
            <line x1="960" y1="360" x2="960" y2="367" transform="rotate(-102.00 960 1080)"/>
            <line x1="960" y1="360" x2="960" y2="367" transform="rotate(-96.00 960 1080)"/>
            <line x1="960" y1="360" x2="960" y2="367" transform="rotate(-84.00 960 1080)"/>
            <line x1="960" y1="360" x2="960" y2="367" transform="rotate(-78.00 960 1080)"/>
            <line x1="960" y1="360" x2="960" y2="367" transform="rotate(-72.00 960 1080)"/>
            <line x1="960" y1="360" x2="960" y2="367" transform="rotate(-66.00 960 1080)"/>
            <line x1="960" y1="360" x2="960" y2="367" transform="rotate(-54.00 960 1080)"/>
            <line x1="960" y1="360" x2="960" y2="367" transform="rotate(-48.00 960 1080)"/>
            <line x1="960" y1="360" x2="960" y2="367" transform="rotate(-42.00 960 1080)"/>
            <line x1="960" y1="360" x2="960" y2="367" transform="rotate(-36.00 960 1080)"/>
            <line x1="960" y1="360" x2="960" y2="367" transform="rotate(-24.00 960 1080)"/>
            <line x1="960" y1="360" x2="960" y2="367" transform="rotate(-12.00 960 1080)"/>
            <line x1="960" y1="360" x2="960" y2="367" transform="rotate(-6.00 960 1080)"/>
        </g>
        <g style="stroke-width:1;fill:white;font-family:Verdana;font-size: 30px;font-style:normal;text-anchor:start">
            <text style="text-anchor:normal" transform="rotate(161,960,1080)">
                <textPath xlink:href="#clockEdge">IDENT</textPath>
            </text>
            <text style="text-anchor:normal" transform="rotate(258,960,1080)">
                <textPath xlink:href="#clockEdge">FADE</textPath>
            </text>
        </g>
        <path d="M1690,1080 A730,730 0 1 1 960,350" style="stroke:none;fill:none" id="clockGreen"/>
        <path d="M1690,1080 A730,730 0 1 1 960,350" style="stroke:none;fill:none" id="clockRed"/>
        <g id="clockHand" style="stroke-width:5">
            <line x1="960" y1="936" x2="960" y2="380"/>
        </g>
        <circle cx="960" cy="1080" r="144"/>
    </g>
</svg>
